<svg xmlns="http://www.w3.org/2000/svg" xmlns:xlink="http://www.w3.org/1999/xlink" x="0px" y="0px" viewBox="0 0 150 150" xml:space="preserve"><g id="Colors"></g><g id="Layer_1"></g><g id="Layer_2">	<g>		<path fill="#05164D" d="M75,3c-2.300621,0-4.1656418,1.8650198-4.1656418,4.165638S72.699379,11.3312759,75,11.3312759    s4.1656418-1.8650198,4.1656418-4.165638S77.300621,3,75,3z M16.2537193,36.91716    c-2.3006191,0-4.1656389,1.8650208-4.1656389,4.165638s1.8650198,4.165638,4.1656389,4.165638    s4.165638-1.8650208,4.165638-4.165638S18.5543365,36.91716,16.2537193,36.91716z M133.7463074,36.91716    c-2.3006287,0-4.1656494,1.8650208-4.1656494,4.165638s1.8650208,4.165638,4.1656494,4.165638    c2.3006134,0,4.1656342-1.8650208,4.1656342-4.165638S136.0469208,36.91716,133.7463074,36.91716z M133.7463074,70.834343    c-2.3006287,0-4.1656494,1.8650208-4.1656494,4.1656342c0,2.300621,1.8650208,4.1656418,4.1656494,4.1656418    c2.3006134,0,4.1656342-1.8650208,4.1656342-4.1656418C137.9119415,72.6993637,136.0469208,70.834343,133.7463074,70.834343z     M45.6268578,121.7100372c-2.3006172,0-4.165638,1.8650208-4.165638,4.1656418s1.8650208,4.1656418,4.165638,4.1656418    c2.300621,0,4.165638-1.8650208,4.165638-4.1656418S47.9274788,121.7100372,45.6268578,121.7100372z M45.6268578,19.9583759    c-2.3006172,0-4.165638,1.8650208-4.165638,4.165638s1.8650208,4.165638,4.165638,4.165638    c2.300621,0,4.165638-1.8650188,4.165638-4.165638S47.9274788,19.9583759,45.6268578,19.9583759z M133.7463074,104.7515259    c-2.3006287,0-4.1656494,1.8650131-4.1656494,4.1656342s1.8650208,4.1656418,4.1656494,4.1656418    c2.3006134,0,4.1656342-1.8650208,4.1656342-4.1656418S136.0469208,104.7515259,133.7463074,104.7515259z M16.2537193,104.7515259    c-2.3006191,0-4.1656389,1.8650131-4.1656389,4.1656342s1.8650198,4.1656418,4.1656389,4.1656418    s4.165638-1.8650208,4.165638-4.1656418S18.5543365,104.7515259,16.2537193,104.7515259z M75,138.6687164    c-2.300621,0-4.1656418,1.8650208-4.1656418,4.1656494C70.8343582,145.1349792,72.699379,147,75,147    s4.1656418-1.8650208,4.1656418-4.1656342C79.1656418,140.5337372,77.300621,138.6687164,75,138.6687164z"></path>	</g>	<g>		<path fill="#FF6A00" d="M79.9509964,12.3334665l46.8427734,27.0449219    c0.3295898-1.3422852,1.0341797-2.5366211,2.0014725-3.4633789L81.951973,8.8695993    C81.6228714,10.2123728,80.9180374,11.4062204,79.9509964,12.3334665z"></path>		<path fill="#FF6A00" d="M52.5789261,22.4198933l17.470459-10.0864267    c-0.9672852-0.9272461-1.6721191-2.1210938-2.001709-3.4633789L50.5779495,18.9565144    C51.5452347,19.8832722,52.2498245,21.0776081,52.5789261,22.4198933z"></path>		<path fill="#FF6A00" d="M135.7464142,68.1239929V47.9589539c-0.6357422,0.1850586-1.3054199,0.2895508-2,0.2895508    s-1.3642578-0.1044922-2-0.2895508v20.1650391c0.6357422-0.1850586,1.3054199-0.2895508,2-0.2895508    S135.110672,67.9389343,135.7464142,68.1239929z"></path>		<path fill="#FF6A00" d="M23.2058792,39.3783875l17.470459-10.0864239    c-0.9675293-0.9272461-1.6721191-2.1210938-2.001709-3.4633789L21.2044144,35.9150085    C22.1716995,36.8422546,22.8762894,38.0361023,23.2058792,39.3783875z"></path>		<path fill="#FF6A00" d="M133.7464142,82.1654968c-0.6945801,0-1.3642578-0.1044922-2-0.2895508v20.1650391    c0.6357422-0.1850586,1.3054199-0.2895508,2-0.2895508s1.3642578,0.1044922,2,0.2895508V81.875946    C135.110672,82.0610046,134.4409943,82.1654968,133.7464142,82.1654968z"></path>		<path fill="#FF6A00" d="M70.0493851,137.6664734l-17.470459-10.0864258    c-0.3291016,1.3427734-1.0336914,2.5366211-2.0009766,3.4638672l17.4697266,10.0859375    C68.3772659,139.7875671,69.0818558,138.5937195,70.0493851,137.6664734z"></path>		<path fill="#FF6A00" d="M16.2532425,101.7514343c0.6945801,0,1.3642578,0.1044922,2,0.2895508V47.9589539    c-0.6357422,0.1850586-1.3054199,0.2895508-2,0.2895508s-1.3642578-0.1044922-2-0.2895508v54.0820312    C14.8889847,101.8559265,15.5586624,101.7514343,16.2532425,101.7514343z"></path>		<path fill="#FF6A00" d="M126.794014,110.6220398l-46.8430176,27.0444336    c0.967041,0.9272461,1.671875,2.1210938,2.0009766,3.4638672l46.8435135-27.0454102    C127.8279495,113.1581726,127.1233597,111.9638367,126.794014,110.6220398z"></path>		<path fill="#FF6A00" d="M40.6760941,120.7079773l-17.470459-10.0859375    c-0.3293457,1.3417969-1.0339355,2.5361328-2.0012207,3.4628906l17.4702148,10.0864258    C39.0039749,122.829071,39.7088089,121.6352234,40.6760941,120.7079773z"></path>	</g>	<path fill="#05164D" d="M94.0694351,63.4121132h-5V50.5190735c0-7.7581787-6.3115234-14.0698242-14.0693359-14.0698242   c-7.7587891,0-14.0703163,6.3116455-14.0703163,14.0698242v12.8930397h-5V50.5190735   c0-10.5151367,8.5546913-19.0698223,19.0703163-19.0698223c10.5146484,0,19.0693359,8.5546856,19.0693359,19.0698223V63.4121132z"></path>	<path fill="none" stroke="#05164D" stroke-width="4" stroke-linecap="round" stroke-linejoin="round" stroke-miterlimit="10" d="   M82.3243179,81.5644455c0-4.0449219-3.2792969-7.3242188-7.3242188-7.3242188c-4.045166,0-7.3242188,3.2792969-7.3242188,7.3242188   c0,2.7280273,1.4946289,5.1030273,3.706543,6.3632812l-2.0200195,12.3125h11.2751465L78.6175308,87.928215   C80.829689,86.6674728,82.3243179,84.2924728,82.3243179,81.5644455z"></path>	<polyline fill="none" stroke="#05164D" stroke-width="4" stroke-linejoin="round" stroke-miterlimit="10" points="   48.5993614,90.0905533 48.5993614,63.4121132 101.4006424,63.4121132 101.4006424,90.0905533  "></polyline>	<path fill="none" stroke="#05164D" stroke-width="4" stroke-linecap="round" stroke-linejoin="round" stroke-miterlimit="10" d="   M52.023777,48.4945984c-4.5415039,1.5454102-8.8830566,3.5263672-12.9729004,5.8955078   c0.0263672,26.5683594,14.496582,49.7080078,35.9492226,62.1347656   c21.4523926-12.4267578,35.9226074-35.5664062,35.9487305-62.1347656   c-4.0898438-2.3691406-8.4316406-4.3500977-12.9736328-5.8955078"></path>	<path fill="none" stroke="#05164D" stroke-width="4" stroke-linecap="round" stroke-linejoin="round" stroke-miterlimit="10" d="   M83.5420914,48.7546082c-2.8007812-0.3364258-5.6491699-0.5200195-8.5419922-0.5200195   c-2.8933105,0-5.7416992,0.1835938-8.5429688,0.5200195"></path></g></svg>
